<?xml version="1.0" encoding="utf-8"?>
<!-- Generator: Adobe Illustrator 16.0.0, SVG Export Plug-In . SVG Version: 6.00 Build 0)  -->
<!DOCTYPE svg PUBLIC "-//W3C//DTD SVG 1.1//EN" "http://www.w3.org/Graphics/SVG/1.1/DTD/svg11.dtd">
<svg version="1.1" id="Layer_1" xmlns="http://www.w3.org/2000/svg" xmlns:xlink="http://www.w3.org/1999/xlink" x="0px" y="0px"
	 width="512px" height="465.675px" viewBox="0 0 512 465.675" enable-background="new 0 0 512 465.675" xml:space="preserve">
<path fill="#414042" d="M511.812,428.431l-104.883-242.62l9.718-23.611L458.959,0L370.49,118.2l-42.159-56.33L344.466,0
	l-31.222,41.716L282.021,0l16.138,61.87L256,118.2l-42.162-56.33L229.979,0l-31.225,41.716L167.531,0l16.138,61.87l-42.162,56.33
	L53.041,0l42.31,162.2l9.721,23.613L0.188,428.431c-1.693,11.345,8.182,25.068,24.25,32.471c9.784,4.519,19.851,5.726,27.93,4.058
	c6.921-1.438,12.395-4.978,14.958-10.448l74.183-180.19l19.409,47.145l-46.244,106.966c-1.687,11.345,8.188,25.068,24.256,32.471
	c9.778,4.519,19.845,5.726,27.93,4.058c6.915-1.438,12.389-4.978,14.952-10.448l16.939-41.144l16.939,41.144
	c2.563,5.471,8.038,9.011,14.956,10.448c7.374,1.521,16.396,0.618,25.352-2.977c8.953,3.595,17.978,4.498,25.349,2.977
	c6.921-1.438,12.396-4.978,14.958-10.448l16.937-41.144l16.939,41.144c2.563,5.471,8.038,9.011,14.956,10.448
	c8.083,1.668,18.149,0.461,27.93-4.058c16.069-7.402,25.943-21.126,24.253-32.471l-46.241-106.966l19.41-47.145l74.183,180.19
	c2.563,5.471,8.037,9.011,14.955,10.448c8.082,1.668,18.148,0.461,27.93-4.058C503.627,453.5,513.501,439.776,511.812,428.431z
	 M198.753,233.941l-20.805-48.13l9.718-23.611l11.087-42.5l11.087,42.5l9.721,23.613L198.753,233.941z M256,366.361l-19.409-44.896
	L256,274.321l19.406,47.145L256,366.361z M313.244,233.941l-20.805-48.13l9.721-23.611l11.084-42.5l11.086,42.5l9.721,23.613
	L313.244,233.941z"/>
</svg>
