<?xml version="1.0" encoding="utf-8"?>
<!-- Generator: Adobe Illustrator 16.0.0, SVG Export Plug-In . SVG Version: 6.00 Build 0)  -->
<!DOCTYPE svg PUBLIC "-//W3C//DTD SVG 1.1//EN" "http://www.w3.org/Graphics/SVG/1.1/DTD/svg11.dtd">
<svg version="1.1" id="Layer_1" xmlns="http://www.w3.org/2000/svg" xmlns:xlink="http://www.w3.org/1999/xlink" x="0px" y="0px"
	 width="166.595px" height="151.522px" viewBox="0 0 166.595 151.522" enable-background="new 0 0 166.595 151.522"
	 xml:space="preserve">
<polygon fill="none" points="101.924,38.948 98.317,52.777 95.154,60.459 101.924,76.12 108.694,60.459 105.531,52.777 "/>
<polygon fill="none" points="68.278,52.777 64.671,38.948 61.064,52.777 57.901,60.459 64.671,76.12 71.441,60.459 "/>
<polygon fill="none" points="76.982,104.599 83.298,119.207 89.613,104.599 83.298,89.258 "/>
<polygon fill="#5CC0EB" points="74.831,0 64.671,13.574 69.58,20.131 "/>
<path fill="#5CC0EB" d="M0.061,139.403c-0.55,3.691,2.663,8.157,7.892,10.565c3.183,1.47,6.458,1.863,9.088,1.32
	c2.251-0.468,4.032-1.62,4.866-3.4l24.138-58.631L34.188,60.459L0.061,139.403z"/>
<polygon fill="#5CC0EB" points="57.901,60.459 61.064,52.777 64.671,38.948 59.763,20.131 46.044,38.46 51.599,45.88 "/>
<polygon fill="#5CC0EB" points="112.083,0 101.924,13.574 106.833,20.131 "/>
<polygon fill="#5CC0EB" points="95.154,60.459 98.317,52.777 101.924,38.948 97.016,20.131 83.298,38.46 88.852,45.88 "/>
<polygon fill="#5CC0EB" points="132.407,60.459 135.57,52.777 149.337,0 120.551,38.46 126.104,45.88 "/>
<path fill="#0B435B" d="M166.534,139.403l-40.43-93.523L91.765,0l13.767,52.777l39.157,95.112c0.834,1.78,2.615,2.932,4.866,3.4
	c2.63,0.542,5.905,0.15,9.088-1.32C163.871,147.56,167.084,143.095,166.534,139.403z"/>
<path fill="#0B435B" d="M107.436,147.889c0.834,1.78,2.615,2.932,4.866,3.4c2.63,0.542,5.905,0.15,9.088-1.32
	c5.229-2.409,8.441-6.874,7.892-10.565l-15.046-34.805l-12.312,29.903L107.436,147.889z"/>
<polygon fill="#0B435B" points="88.852,45.88 54.512,0 68.278,52.777 89.613,104.599 101.924,76.12 "/>
<path fill="#0B435B" d="M74.567,139.403l8.731-20.196l-6.315-14.608l-12.312,29.903l5.512,13.387c0.834,1.78,2.615,2.932,4.866,3.4
	c2.399,0.495,5.335,0.201,8.249-0.969c-0.28-0.112-0.561-0.223-0.839-0.352C77.23,147.56,74.017,143.095,74.567,139.403z"/>
<polygon fill="#0B435B" points="51.599,45.88 17.258,0 31.025,52.777 52.36,104.599 64.671,76.12 "/>
<path fill="#5CC0EB" d="M71.441,60.459L64.671,76.12L52.36,104.599l-15.046,34.805c-0.55,3.691,2.663,8.157,7.892,10.565
	c3.183,1.47,6.458,1.863,9.088,1.32c2.251-0.468,4.032-1.62,4.866-3.4l5.511-13.387l12.312-29.903l6.315-15.34L71.441,60.459z"/>
<path fill="#5CC0EB" d="M108.694,60.459l-6.771,15.661l-12.311,28.479l-6.315,14.608l-8.731,20.196
	c-0.55,3.691,2.663,8.157,7.892,10.565c0.279,0.129,0.559,0.239,0.839,0.352c2.913,1.17,5.849,1.464,8.249,0.969
	c2.251-0.468,4.032-1.62,4.866-3.4l5.511-13.387l12.312-29.903l6.315-15.34L108.694,60.459z"/>
</svg>
