<?xml version="1.0" encoding="utf-8"?>
<!-- Generator: Adobe Illustrator 16.0.0, SVG Export Plug-In . SVG Version: 6.00 Build 0)  -->
<!DOCTYPE svg PUBLIC "-//W3C//DTD SVG 1.1//EN" "http://www.w3.org/Graphics/SVG/1.1/DTD/svg11.dtd">
<svg version="1.1" id="Layer_1" xmlns="http://www.w3.org/2000/svg" xmlns:xlink="http://www.w3.org/1999/xlink" x="0px" y="0px"
	 width="168.258px" height="197.911px" viewBox="0 0 168.258 197.911" enable-background="new 0 0 168.258 197.911"
	 xml:space="preserve">
<g>
	<path fill="#0B435B" d="M0,175.055c2.459-0.306,4.785-0.459,6.974-0.459c2.211,0,4.113,0.153,5.705,0.459s2.9,0.787,3.927,1.44
		c1.027,0.654,1.783,1.486,2.268,2.497s0.728,2.221,0.728,3.63c0,2.738-1.004,4.76-3.013,6.066
		c-2.009,1.308-5.124,1.961-9.344,1.961c-0.474,0-0.971-0.01-1.49-0.031c-0.52-0.02-1.095-0.05-1.727-0.092v7.047H0V175.055z
		 M7.854,187.739c1.422,0,2.618-0.092,3.588-0.275c0.97-0.184,1.755-0.48,2.353-0.889c0.598-0.408,1.033-0.935,1.303-1.578
		c0.271-0.643,0.406-1.435,0.406-2.375c0-0.919-0.135-1.7-0.406-2.344c-0.271-0.643-0.711-1.174-1.32-1.593s-1.405-0.72-2.387-0.904
		c-0.982-0.184-2.172-0.275-3.572-0.275c-0.655,0-1.337,0.021-2.048,0.061c-0.711,0.042-1.292,0.092-1.744,0.153v9.712
		c0.18,0.041,0.417,0.077,0.711,0.107c0.293,0.031,0.615,0.062,0.965,0.092c0.35,0.03,0.711,0.056,1.083,0.076
		C7.16,187.729,7.516,187.739,7.854,187.739z"/>
	<path fill="#0B435B" d="M19.433,197.329l9.344-22.427h6.094l9.344,22.427v0.245H40.22l-2.607-6.281H26l-2.573,6.281h-3.995V197.329
		z M36.529,188.321l-2.776-6.587l-1.761-4.351H31.62l-1.727,4.381l-2.776,6.556H36.529z"/>
	<path fill="#0B435B" d="M47.396,174.901h4.029v19.823h12.188v2.849H47.396V174.901z"/>
	<path fill="#0B435B" d="M67.1,174.901h4.029v22.672H67.1V174.901z"/>
	<path fill="#0B435B" d="M84.434,197.911c-0.609,0-1.275-0.021-1.998-0.061c-0.723-0.042-1.467-0.103-2.234-0.184
		c-0.768-0.082-1.541-0.178-2.319-0.291c-0.779-0.112-1.529-0.24-2.251-0.383v-3.002c3.408,0.654,6.274,0.98,8.599,0.98
		c3.949,0,5.925-1.093,5.925-3.278c0-0.654-0.142-1.2-0.423-1.639c-0.283-0.439-0.677-0.807-1.185-1.103
		c-0.508-0.296-1.106-0.536-1.794-0.72c-0.688-0.184-1.438-0.347-2.251-0.49c-1.513-0.265-2.805-0.597-3.876-0.996
		c-1.072-0.398-1.947-0.873-2.624-1.425c-0.677-0.551-1.174-1.195-1.49-1.93s-0.474-1.583-0.474-2.543c0-0.98,0.22-1.864,0.66-2.65
		c0.44-0.786,1.078-1.46,1.913-2.022c0.835-0.562,1.833-0.99,2.996-1.287c1.163-0.296,2.477-0.444,3.944-0.444
		c1.038,0,2.138,0.066,3.301,0.199c1.162,0.133,2.544,0.342,4.147,0.628v3.002c-1.129-0.286-2.325-0.505-3.589-0.659
		c-1.264-0.153-2.415-0.229-3.453-0.229c-1.783,0-3.171,0.301-4.164,0.904c-0.994,0.603-1.49,1.425-1.49,2.466
		c0,0.531,0.096,0.991,0.288,1.379s0.508,0.74,0.948,1.057c0.44,0.317,1.016,0.598,1.727,0.843s1.596,0.48,2.658,0.705
		c1.241,0.266,2.381,0.562,3.419,0.889c1.038,0.327,1.93,0.74,2.674,1.241s1.326,1.118,1.744,1.854
		c0.417,0.735,0.626,1.634,0.626,2.696c0,2.145-0.835,3.764-2.505,4.856C90.211,197.365,87.729,197.911,84.434,197.911z"/>
	<path fill="#0B435B" d="M95.673,197.329l9.344-22.427h6.094l9.344,22.427v0.245h-3.995l-2.607-6.281h-11.612l-2.573,6.281h-3.995
		V197.329z M112.77,188.321l-2.776-6.587l-1.761-4.351h-0.373l-1.727,4.381l-2.776,6.556H112.77z"/>
	<path fill="#0B435B" d="M130.916,197.85c-0.768,0-1.523-0.011-2.269-0.031c-0.745-0.021-1.438-0.051-2.082-0.092
		c-0.643-0.042-1.219-0.092-1.727-0.153s-0.909-0.123-1.202-0.184v-22.458c0.699-0.041,1.422-0.077,2.167-0.107
		c0.745-0.03,1.478-0.061,2.201-0.092c0.722-0.031,1.405-0.056,2.048-0.077c0.643-0.02,1.202-0.03,1.676-0.03
		c4.808,0,8.333,0.934,10.58,2.803c2.246,1.869,3.369,4.805,3.369,8.809c0,2.022-0.282,3.769-0.846,5.239
		c-0.564,1.471-1.445,2.676-2.641,3.615c-1.197,0.94-2.726,1.635-4.587,2.083C135.74,197.625,133.511,197.85,130.916,197.85z
		 M132.304,194.908c1.625,0,3.024-0.163,4.198-0.49c1.173-0.327,2.133-0.842,2.878-1.547c0.745-0.705,1.292-1.603,1.642-2.696
		c0.35-1.093,0.524-2.405,0.524-3.937c0-3.023-0.733-5.213-2.201-6.572c-1.467-1.358-3.848-2.037-7.143-2.037
		c-0.587,0-1.292,0.021-2.116,0.061c-0.824,0.042-1.631,0.092-2.42,0.153v16.729c0.834,0.123,1.602,0.209,2.302,0.26
		C130.667,194.883,131.446,194.908,132.304,194.908z"/>
	<path fill="#0B435B" d="M150.383,174.901h17.571v2.88h-13.542v6.863h12.628v2.911h-12.628v7.139h13.847v2.88h-17.875V174.901z"/>
</g>
<polygon fill="#5CC0EB" points="74.891,0 64.731,13.574 69.64,20.131 "/>
<polygon fill="#5CC0EB" points="112.144,0 101.984,13.574 106.893,20.131 "/>
<g>
	<polygon fill="none" points="103.166,39.589 99.523,53.552 96.33,61.31 103.166,77.124 110.002,61.31 106.809,53.552 	"/>
	<polygon fill="none" points="69.192,53.552 65.549,39.589 61.907,53.552 58.714,61.31 65.549,77.124 72.386,61.31 	"/>
	<polygon fill="none" points="77.981,105.88 84.358,120.631 90.734,105.88 84.358,90.39 	"/>
	<path fill="#5CC0EB" d="M0.309,141.024c-0.556,3.728,2.689,8.236,7.969,10.669c3.214,1.484,6.521,1.88,9.176,1.333
		c2.273-0.472,4.072-1.636,4.914-3.433L46.741,90.39L34.77,61.31L0.309,141.024z"/>
	<polygon fill="#5CC0EB" points="58.714,61.31 61.907,53.552 65.549,39.589 60.593,20.588 46.741,39.096 52.35,46.589 	"/>
	<polygon fill="#5CC0EB" points="96.33,61.31 99.523,53.552 103.166,39.589 98.209,20.588 84.358,39.096 89.966,46.589 	"/>
	<polygon fill="#5CC0EB" points="133.946,61.31 137.14,53.552 151.042,0.261 121.975,39.096 127.583,46.589 	"/>
	<path fill="#0B435B" d="M168.406,141.024l-40.824-94.435L92.907,0.261l13.901,53.292l39.539,96.041
		c0.842,1.797,2.641,2.96,4.914,3.433c2.655,0.547,5.962,0.151,9.176-1.333C165.717,149.26,168.961,144.751,168.406,141.024z"/>
	<path fill="#0B435B" d="M108.731,149.593c0.842,1.797,2.641,2.96,4.914,3.433c2.656,0.547,5.963,0.151,9.177-1.333
		c5.28-2.433,8.524-6.941,7.969-10.669l-15.193-35.144l-12.432,30.195L108.731,149.593z"/>
	<polygon fill="#0B435B" points="89.966,46.589 55.291,0.261 69.192,53.552 90.734,105.88 103.166,77.124 	"/>
	<path fill="#0B435B" d="M75.542,141.024l8.816-20.393l-6.377-14.751l-12.432,30.195l5.565,13.518
		c0.842,1.797,2.641,2.96,4.914,3.433c2.422,0.5,5.387,0.203,8.329-0.978c-0.283-0.114-0.566-0.225-0.847-0.355
		C78.231,149.26,74.987,144.751,75.542,141.024z"/>
	<polygon fill="#0B435B" points="52.35,46.589 17.674,0.261 31.575,53.552 53.118,105.88 65.549,77.124 	"/>
	<path fill="#5CC0EB" d="M72.386,61.31l-6.836,15.813L53.118,105.88l-15.193,35.144c-0.555,3.728,2.689,8.236,7.969,10.669
		c3.213,1.484,6.521,1.88,9.177,1.333c2.272-0.472,4.071-1.636,4.914-3.433l5.565-13.518l12.432-30.195l6.377-15.49L72.386,61.31z"
		/>
	<path fill="#5CC0EB" d="M110.002,61.31l-6.836,15.813L90.734,105.88l-6.376,14.751l-8.816,20.393
		c-0.555,3.728,2.689,8.236,7.969,10.669c0.281,0.13,0.564,0.241,0.847,0.355c2.941,1.181,5.906,1.478,8.329,0.978
		c2.273-0.472,4.072-1.636,4.914-3.433l5.565-13.518l12.432-30.195l6.377-15.49L110.002,61.31z"/>
</g>
</svg>
